<?xml version="1.0" standalone="no"?>
<!DOCTYPE svg PUBLIC "-//W3C//DTD SVG 20010904//EN"
 "http://www.w3.org/TR/2001/REC-SVG-20010904/DTD/svg10.dtd">
<svg version="1.0" xmlns="http://www.w3.org/2000/svg"
 width="638.000000pt" height="638.000000pt" viewBox="0 0 638.000000 638.000000"
 preserveAspectRatio="xMidYMid meet">
<metadata>
Created by potrace 1.14, written by Peter Selinger 2001-2017
</metadata>
<g transform="translate(0.000000,638.000000) scale(0.100000,-0.100000)"
fill="#000000" stroke="none">
<path d="M1888 5027 c-22 -80 -55 -215 -61 -247 -3 -14 -17 -70 -31 -125 -14
-55 -27 -114 -30 -132 -10 -56 -32 -108 -44 -105 -20 4 -161 -28 -242 -55
-101 -33 -218 -93 -313 -160 l-78 -54 -185 120 c-102 67 -187 121 -190 121 -3
0 43 -93 101 -206 l106 -206 -49 -72 c-87 -127 -139 -237 -180 -383 l-20 -73
26 1 c15 0 49 8 77 18 45 16 51 21 62 62 7 24 17 53 22 64 74 164 127 249 214
341 115 124 250 218 393 275 81 32 213 68 230 62 8 -3 7 -21 -3 -61 -29 -123
-20 -111 -109 -141 -174 -59 -310 -155 -439 -312 -46 -55 -118 -196 -149 -291
-3 -10 -11 -18 -18 -19 -14 -1 -23 -3 -78 -18 -19 -5 -102 -27 -185 -49 -562
-149 -665 -177 -665 -183 0 -4 15 -10 33 -14 17 -4 37 -9 42 -11 68 -20 193
-57 205 -60 49 -11 324 -94 328 -99 3 -3 16 -47 28 -97 43 -170 122 -329 236
-474 l47 -61 -67 -99 c-36 -54 -70 -100 -74 -102 -5 -2 -8 -7 -8 -12 0 -5 -25
-45 -56 -89 -30 -45 -52 -81 -49 -81 3 0 21 11 38 24 18 13 103 71 190 129
l158 106 34 -21 c19 -11 35 -24 35 -29 0 -5 5 -9 12 -9 6 0 19 -6 27 -14 51
-43 262 -135 369 -159 72 -17 71 -19 44 77 l-17 58 -70 22 c-258 82 -494 280
-620 520 -50 95 -109 266 -92 266 1 0 42 -11 91 -24 81 -23 105 -36 106 -59 0
-21 76 -158 120 -217 111 -148 257 -255 436 -320 l61 -22 13 -56 c8 -31 15
-61 16 -67 3 -12 49 -190 99 -378 20 -76 38 -146 41 -155 6 -26 29 -115 63
-242 17 -63 31 -119 31 -125 2 -30 27 45 46 135 3 14 12 54 20 90 9 36 33 146
55 245 22 99 42 187 44 195 2 8 4 20 4 26 1 6 27 17 59 24 159 35 317 105 444
197 113 81 111 79 112 183 1 50 -2 89 -6 88 -4 -2 -31 -26 -60 -54 -75 -71
-150 -125 -248 -177 -77 -41 -223 -97 -255 -97 -9 0 -6 25 10 92 l22 92 65 26
c94 38 197 103 267 169 29 28 31 33 31 106 l0 76 -67 -69 c-102 -105 -230
-183 -346 -213 -26 -6 -47 -15 -47 -20 0 -15 -2 -23 -11 -47 -5 -13 -11 -35
-14 -50 -3 -15 -14 -61 -25 -102 -12 -41 -23 -86 -26 -100 -3 -14 -18 -74 -33
-135 l-28 -110 -21 70 c-12 39 -44 153 -72 254 -52 186 -69 221 -110 221 -30
0 -162 49 -229 86 -139 76 -248 187 -324 329 -28 51 -65 148 -70 184 -3 19
-11 37 -17 41 -7 4 -110 33 -229 65 -119 31 -222 60 -229 64 -7 4 19 15 60 25
40 11 80 23 89 27 9 4 27 10 40 13 40 7 254 69 261 75 4 4 19 46 33 94 54 186
149 326 297 435 91 67 182 106 348 149 24 6 36 15 37 28 2 20 109 427 120 455
7 18 47 -103 97 -290 56 -210 56 -208 85 -215 121 -30 288 -131 375 -226 l56
-62 0 79 0 79 -56 45 c-31 25 -62 51 -69 58 -8 6 -16 12 -19 12 -3 0 -27 13
-53 29 -27 16 -68 37 -93 47 -55 21 -50 17 -55 40 -9 39 -34 152 -39 175 -2
13 -21 87 -41 164 -20 77 -38 147 -40 155 -3 13 -27 106 -109 417 -12 45 -24
85 -27 87 -2 3 -12 -23 -21 -57z"/>
<path d="M3226 4394 c-86 -27 -147 -78 -187 -155 -70 -137 -47 -302 58 -407
92 -92 237 -118 361 -66 44 18 121 75 122 90 0 6 -17 20 -39 32 l-38 22 -19
-22 c-68 -76 -224 -80 -309 -7 -36 32 -75 110 -80 162 -10 92 39 203 109 246
84 52 221 38 280 -27 l19 -22 38 22 c22 12 39 25 39 29 0 14 -75 72 -118 91
-60 27 -172 32 -236 12z"/>
<path d="M4599 4338 c0 -35 -1 -90 0 -122 l0 -59 -22 20 c-41 36 -95 55 -155
52 -69 -3 -118 -25 -161 -75 -90 -102 -86 -247 9 -346 83 -86 220 -92 308 -15
l22 20 0 -32 c0 -32 1 -32 42 -29 l42 3 0 323 1 322 -42 0 -43 0 -1 -62z m-86
-204 c54 -26 82 -77 82 -150 0 -68 -16 -99 -68 -138 -40 -30 -126 -32 -168 -3
-65 44 -88 112 -67 194 24 96 127 142 221 97z"/>
<path d="M2171 4373 c0 -10 8 -44 17 -77 l17 -58 85 -37 c189 -81 364 -228
476 -398 31 -48 60 -91 63 -95 8 -10 122 36 121 48 -5 41 -115 199 -205 296
-89 94 -213 187 -330 245 -49 25 -225 93 -241 93 -2 0 -4 -8 -3 -17z"/>
<path d="M3771 4203 c-102 -55 -150 -166 -122 -278 16 -64 47 -107 104 -146
46 -31 56 -34 126 -34 59 0 85 5 118 22 46 24 83 57 83 73 0 6 4 10 10 10 16
0 43 110 38 159 -9 90 -64 167 -146 202 -63 27 -150 24 -211 -8z m206 -81 c92
-65 85 -223 -13 -280 -32 -19 -49 -22 -92 -17 -29 2 -62 11 -72 18 -99 69 -93
232 10 289 46 25 125 20 167 -10z"/>
<path d="M4930 4217 c-54 -17 -123 -93 -140 -152 -35 -125 4 -231 107 -291 90
-53 244 -36 306 33 18 20 17 21 -17 42 l-35 22 -31 -23 c-36 -27 -129 -34
-170 -13 -35 18 -67 55 -75 88 l-7 27 186 0 186 0 0 38 c0 171 -148 280 -310
229z m158 -87 c29 -18 62 -70 62 -99 0 -5 -60 -9 -140 -8 -157 0 -162 3 -115
67 45 60 130 78 193 40z"/>
<path d="M1677 3601 c-365 -92 -361 -620 6 -715 130 -34 286 13 373 113 31 35
71 110 79 146 65 291 -172 527 -458 456z m200 -186 c41 -27 61 -55 77 -106 31
-101 -7 -199 -94 -242 -75 -38 -163 -24 -220 33 -58 58 -72 174 -30 249 52 91
180 123 267 66z"/>
<path d="M2615 3615 c-5 -2 -26 -6 -46 -9 -20 -4 -54 -22 -77 -42 l-42 -36 0
36 0 36 -87 -2 -88 -3 -1 -353 -1 -352 86 2 86 3 5 230 c4 205 7 234 24 262
50 81 177 70 206 -18 8 -24 13 -112 14 -256 l1 -218 88 -3 87 -3 0 220 c0 247
7 283 61 315 40 24 95 23 128 -1 50 -38 54 -60 55 -303 l1 -225 88 -1 88 -2
-3 267 c-3 245 -5 269 -24 311 -43 92 -121 143 -219 143 -71 0 -136 -25 -182
-72 l-33 -32 -31 36 c-18 20 -46 42 -63 49 -33 14 -105 26 -121 21z"/>
<path d="M3787 3608 c-49 -10 -95 -34 -130 -67 l-28 -26 4 42 4 42 -89 0 c-62
0 -88 -3 -89 -12 -3 -41 -4 -935 -1 -948 3 -12 19 -15 90 -15 l87 1 -1 173 -1
173 26 -25 c49 -45 108 -68 185 -69 91 -2 151 16 212 62 148 111 188 318 98
497 -65 129 -223 203 -367 172z m116 -177 c129 -43 158 -251 48 -344 -90 -75
-236 -46 -289 59 -38 73 -20 186 38 244 54 54 121 68 203 41z"/>
<path d="M4537 3605 c-26 -7 -47 -10 -47 -8 0 2 -26 -10 -57 -26 -61 -32 -111
-67 -103 -73 123 -91 119 -89 143 -76 105 59 222 47 252 -26 8 -20 15 -46 15
-59 0 -23 -3 -23 -88 -24 -239 -3 -362 -79 -363 -227 -2 -123 98 -209 244
-209 75 -1 144 21 180 58 21 20 30 15 30 -19 0 -23 1 -24 88 -24 l89 -1 0 57
c2 203 0 411 -5 432 -3 14 -8 39 -11 55 -13 69 -88 145 -164 165 -58 16 -152
18 -203 5z m188 -404 c19 -1 21 -7 18 -62 -4 -89 -49 -131 -148 -134 -78 -4
-125 32 -125 95 0 59 41 88 140 97 30 3 56 7 58 8 2 2 11 2 20 0 9 -2 26 -4
37 -4z"/>
<path d="M5265 3609 c-133 -24 -208 -101 -208 -214 0 -123 76 -197 227 -221
140 -22 177 -44 156 -98 -16 -43 -55 -54 -169 -47 -13 0 -37 16 -55 35 l-31
35 -78 -25 c-86 -29 -92 -38 -52 -90 73 -95 268 -137 412 -88 63 21 96 46 125
92 28 46 30 53 30 123 1 108 -58 158 -234 199 -122 28 -146 38 -154 62 -29 93
125 132 194 49 20 -25 28 -29 43 -20 11 5 19 7 19 5 0 -3 11 -1 25 4 14 5 37
12 51 14 36 7 37 9 21 47 -46 105 -182 163 -322 138z"/>
<path d="M5902 3604 c-71 -18 -103 -36 -140 -78 -38 -43 -53 -95 -46 -160 10
-103 87 -169 222 -191 17 -3 47 -7 65 -10 77 -13 113 -46 96 -92 -23 -64 -177
-67 -229 -4 l-25 30 -82 -27 -82 -27 14 -30 c58 -134 350 -188 490 -92 82 57
119 155 92 242 -23 73 -84 110 -244 149 -142 34 -161 48 -138 103 27 64 160
63 195 -1 l12 -23 77 19 c42 11 77 21 79 23 6 6 -31 70 -57 98 -63 69 -189 99
-299 71z"/>
</g>
</svg>
